<?xml version="1.0" ?><svg data-name="Layer 1" id="Layer_1" viewBox="0 0 64 64" xmlns="http://www.w3.org/2000/svg"><title/><circle cx="32" cy="32" r="32"/><path d="M37.12,43S32,47.23,25.45,46.34C16.34,45.1,12.7,34.47,12.7,34.47l.07-6a3.39,3.39,0,0,1,2.37-3.2L27,24.46a2.26,2.26,0,0,1,2.39,2.1l.26,3.83a2.27,2.27,0,0,1-1.34,2.23l-6.7,2.68" style="fill:none;stroke:#17bc17;stroke-linecap:round;stroke-linejoin:round;stroke-width:3px"/><path d="M41.67,44.56s3.46,1,5.24-.2,5.34-5.73,4.16-11" style="fill:none;stroke:#17bc17;stroke-linecap:round;stroke-linejoin:round;stroke-width:3px"/><path d="M17.15,24.81l-.79-7.58a2.28,2.28,0,0,1,1.73-2.44L21.34,14a2.26,2.26,0,0,1,2.78,2l.74,7.56" style="fill:none;stroke:#17bc17;stroke-linecap:round;stroke-linejoin:round;stroke-width:3px"/><path d="M27,11.1,33,11a2.26,2.26,0,0,1,2.25,2l1.31,13.65-1.12,7.71-2.64.23" style="fill:none;stroke:#17bc17;stroke-linecap:round;stroke-linejoin:round;stroke-width:3px"/><path d="M39.89,13.41l2.88.55A2.26,2.26,0,0,1,44.6,16.1l.33,9.47-2.07,7.81-2.18.8" style="fill:none;stroke:#17bc17;stroke-linecap:round;stroke-linejoin:round;stroke-width:3px"/><path d="M49.19,18.45l.86.45a2.27,2.27,0,0,1,1.21,2v7.83" style="fill:none;stroke:#17bc17;stroke-linecap:round;stroke-linejoin:round;stroke-width:3px"/><line style="fill:none;stroke:#17bc17;stroke-linecap:round;stroke-linejoin:round;stroke-width:3px" x1="21.1" x2="20.05" y1="45.05" y2="52.83"/><line style="fill:none;stroke:#17bc17;stroke-linecap:round;stroke-linejoin:round;stroke-width:3px" x1="46.42" x2="46.81" y1="44.79" y2="52.96"/><path d="M37.12,43S32,47.23,25.45,46.34C16.34,45.1,12.7,34.47,12.7,34.47l.07-6a3.39,3.39,0,0,1,2.37-3.2L27,24.46a2.26,2.26,0,0,1,2.39,2.1l.26,3.83a2.27,2.27,0,0,1-1.34,2.23l-6.7,2.68" style="fill:none;stroke:lime;stroke-linecap:round;stroke-linejoin:round;stroke-width:1.5px"/><path d="M41.67,44.56s3.46,1,5.24-.2,5.34-5.73,4.16-11" style="fill:none;stroke:lime;stroke-linecap:round;stroke-linejoin:round;stroke-width:1.5px"/><path d="M17.15,24.81l-.79-7.58a2.28,2.28,0,0,1,1.73-2.44L21.34,14a2.26,2.26,0,0,1,2.78,2l.74,7.56" style="fill:none;stroke:lime;stroke-linecap:round;stroke-linejoin:round;stroke-width:1.5px"/><path d="M27,11.1,33,11a2.26,2.26,0,0,1,2.25,2l1.31,13.65-1.12,7.71-2.64.23" style="fill:none;stroke:lime;stroke-linecap:round;stroke-linejoin:round;stroke-width:1.5px"/><path d="M39.89,13.41l2.88.55A2.26,2.26,0,0,1,44.6,16.1l.33,9.47-2.07,7.81-2.18.8" style="fill:none;stroke:lime;stroke-linecap:round;stroke-linejoin:round;stroke-width:1.5px"/><path d="M49.19,18.45l.86.45a2.27,2.27,0,0,1,1.21,2v7.83" style="fill:none;stroke:lime;stroke-linecap:round;stroke-linejoin:round;stroke-width:1.5px"/><line style="fill:none;stroke:lime;stroke-linecap:round;stroke-linejoin:round;stroke-width:1.5px" x1="21.1" x2="20.05" y1="45.05" y2="52.83"/><line style="fill:none;stroke:lime;stroke-linecap:round;stroke-linejoin:round;stroke-width:1.5px" x1="46.42" x2="46.81" y1="44.79" y2="52.96"/><path d="M37.12,43S32,47.23,25.45,46.34C16.34,45.1,12.7,34.47,12.7,34.47l.07-6a3.39,3.39,0,0,1,2.37-3.2L27,24.46a2.26,2.26,0,0,1,2.39,2.1l.26,3.83a2.27,2.27,0,0,1-1.34,2.23l-6.7,2.68" style="fill:none;stroke:#e4ffa3;stroke-linecap:round;stroke-linejoin:round;stroke-width:0.5px"/><path d="M41.67,44.56s3.46,1,5.24-.2,5.34-5.73,4.16-11" style="fill:none;stroke:#e4ffa3;stroke-linecap:round;stroke-linejoin:round;stroke-width:0.5px"/><path d="M17.15,24.81l-.79-7.58a2.28,2.28,0,0,1,1.73-2.44L21.34,14a2.26,2.26,0,0,1,2.78,2l.74,7.56" style="fill:none;stroke:#e4ffa3;stroke-linecap:round;stroke-linejoin:round;stroke-width:0.5px"/><path d="M27,11.1,33,11a2.26,2.26,0,0,1,2.25,2l1.31,13.65-1.12,7.71-2.64.23" style="fill:none;stroke:#e4ffa3;stroke-linecap:round;stroke-linejoin:round;stroke-width:0.5px"/><path d="M39.89,13.41l2.88.55A2.26,2.26,0,0,1,44.6,16.1l.33,9.47-2.07,7.81-2.18.8" style="fill:none;stroke:#e4ffa3;stroke-linecap:round;stroke-linejoin:round;stroke-width:0.5px"/><path d="M49.19,18.45l.86.45a2.27,2.27,0,0,1,1.21,2v7.83" style="fill:none;stroke:#e4ffa3;stroke-linecap:round;stroke-linejoin:round;stroke-width:0.5px"/><line style="fill:none;stroke:#e4ffa3;stroke-linecap:round;stroke-linejoin:round;stroke-width:0.5px" x1="21.1" x2="20.05" y1="45.05" y2="52.83"/><line style="fill:none;stroke:#e4ffa3;stroke-linecap:round;stroke-linejoin:round;stroke-width:0.5px" x1="46.42" x2="46.81" y1="44.79" y2="52.96"/></svg>